<svg xmlns="http://www.w3.org/2000/svg" viewBox="0 0 200 200">
  <defs>
    <!-- Enhanced gradients -->
    <linearGradient id="quillGradient" x1="0%" y1="0%" x2="100%" y2="100%">
      <stop offset="0%" style="stop-color:#9400D3"/>
      <stop offset="50%" style="stop-color:#8A2BE2"/>
      <stop offset="100%" style="stop-color:#4B0082"/>
    </linearGradient>
    <linearGradient id="scrollGradient" x1="0%" y1="0%" x2="0%" y2="100%">
      <stop offset="0%" style="stop-color:#FFD700"/>
      <stop offset="100%" style="stop-color:#DAA520"/>
    </linearGradient>
    <radialGradient id="bgGradient" cx="50%" cy="50%" r="50%" fx="50%" fy="50%">
      <stop offset="0%" style="stop-color:#F0F8FF"/>
      <stop offset="100%" style="stop-color:#E6E6FA"/>
    </radialGradient>
    
    <!-- Improved filters -->
    <filter id="glow" x="-50%" y="-50%" width="200%" height="200%">
      <feGaussianBlur in="SourceGraphic" stdDeviation="5" result="blur"/>
      <feMerge>
        <feMergeNode in="blur"/>
        <feMergeNode in="SourceGraphic"/>
      </feMerge>
    </filter>
    <filter id="shadow" x="-20%" y="-20%" width="140%" height="140%">
      <feGaussianBlur in="SourceAlpha" stdDeviation="3" result="blur"/>
      <feOffset in="blur" dx="2" dy="2" result="offsetBlur"/>
      <feMerge>
        <feMergeNode in="offsetBlur"/>
        <feMergeNode in="SourceGraphic"/>
      </feMerge>
    </filter>
  </defs>

 
  <!-- Stylized quill -->
  <g id="quill" filter="url(#shadow)">
    <path d="M110 20 C130 40, 140 80, 120 120 Q115 130, 105 140 L95 145 Q85 135, 80 120 Q60 90, 80 50 C90 30, 105 10, 110 20 Z" 
          fill="url(#quillGradient)" stroke="#4B0082" stroke-width="3"/>
    <path d="M105 25 C115 35, 125 70, 115 110 Q110 120, 105 125" 
          fill="none" stroke="#DDA0DD" stroke-width="1.5" opacity="0.7"/>
    <path d="M100 30 C110 40, 120 75, 110 115 Q105 125, 100 130" 
          fill="none" stroke="#DDA0DD" stroke-width="1.5" opacity="0.7"/>
    <path d="M95 145 L90 170 L85 165 L95 145" fill="#4B0082" stroke="#4B0082" stroke-width="1"/>
    <path d="M85 50 Q95 55, 105 50 T125 45" fill="none" stroke="#9400D3" stroke-width="1.5"/>
    <path d="M80 70 Q95 75, 110 70 T130 65" fill="none" stroke="#9400D3" stroke-width="1.5"/>
    <path d="M75 90 Q95 95, 115 90 T135 85" fill="none" stroke="#9400D3" stroke-width="1.5"/>
  </g>

  <!-- Dynamic ink splatter -->
  <g id="inkSplatter" opacity="0.7">
    <circle cx="130" cy="140" r="15" fill="#4B0082">
      <animate attributeName="r" values="10;20;15" dur="3s" repeatCount="indefinite"/>
    </circle>
    <circle cx="150" cy="130" r="10" fill="#8A2BE2">
      <animate attributeName="r" values="5;15;10" dur="4s" repeatCount="indefinite"/>
    </circle>
    <circle cx="140" cy="155" r="8" fill="#9400D3">
      <animate attributeName="r" values="3;13;8" dur="5s" repeatCount="indefinite"/>
    </circle>
  </g>

  <!-- Animated sparkle -->
  <g id="sparkle" filter="url(#glow)">
    <polygon points="150,40 155,55 170,60 155,65 150,80 145,65 130,60 145,55" fill="#FFD700">
      <animate attributeName="opacity" values="1;0.5;1" dur="2s" repeatCount="indefinite"/>
      <animateTransform attributeName="transform" type="rotate" from="0 150 60" to="360 150 60" dur="4s" repeatCount="indefinite"/>
    </polygon>
  </g>

  <!-- Enhanced notebook -->
  <g id="notebook" transform="translate(0, 10)">
    <rect x="20" y="150" width="100" height="40" rx="5" ry="5" fill="#D8BFD8" stroke="#4B0082" stroke-width="3"/>
    <rect x="20" y="152" width="96" height="36" rx="3" ry="3" fill="#F0E6FF" opacity="0.7"/>
    <line x1="20" y1="160" x2="120" y2="160" stroke="#4B0082" stroke-width="1.5" stroke-dasharray="2,2"/>
    <line x1="20" y1="170" x2="120" y2="170" stroke="#4B0082" stroke-width="1.5" stroke-dasharray="2,2"/>
    <line x1="20" y1="180" x2="120" y2="180" stroke="#4B0082" stroke-width="1.5" stroke-dasharray="2,2"/>
  </g>

  <!-- Improved pen writing with animation -->
  <g id="writing">
    <text x="40" y="174" font-family="Brush Script MT, cursive" font-size="18" fill="#4B0082" filter="url(#shadow)">
      <tspan>Create</tspan>
      <animate attributeName="opacity" values="0;1" dur="2s" begin="0.5s" fill="freeze"/>
    </text>
    <text x="60" y="190" font-family="Brush Script MT, cursive" font-size="18" fill="#4B0082" filter="url(#shadow)">
      <tspan>Magic</tspan>
      <animate attributeName="opacity" values="0;1" dur="2s" begin="1.5s" fill="freeze"/>
    </text>
  </g>
</svg>
